# xmcd
#
# Track frame offsets:
#	150
#	12255
#	25890
#	40810
#	55195
#	71392
#	90932
#	102162
#	121687
#	138125
#	147915
#	163052
#	178440
#	192150
#	208290
#	222407
#	238477
#	252760
#	266180
#	280145
#	293565
#	309912
#	322210
#
# Disc length: 4427 seconds
#
# Revision: 0
# Processed by: cddbd v1.5.2PL0 Copyright (c) Steve Scherf et al.
# Submitted via: EZCDAudioConverter 2.1.7.1
#
DISCID=59114917
DTITLE=Del Rubio Triplets - Anthology
DYEAR=1900
DGENRE=
TTITLE0=Whip It
TTITLE1=Besame Mucho
TTITLE2=Walk Like An Egyptian
TTITLE3=Unforgettable
TTITLE4=Y.M.C.A.
TTITLE5=I Will Survive
TTITLE6=Mona Lisa
TTITLE7=What A Difference A Day Makes
TTITLE8=These Boots Are Made For Walkin'
TTITLE9=Love Me Tender
TTITLE10=Chain Of Fools
TTITLE11=I Don't Care (Trilogy)
TTITLE12=I Love The Night Life
TTITLE13=La Bamba
TTITLE14=Light My Fire
TTITLE15=Like A Virgin
TTITLE16=Neutron Dance
TTITLE17=Cachita
TTITLE18=Crying
TTITLE19=Satisfaction
TTITLE20=Crazy
TTITLE21=Chica-Chica-Boom-Chic
TTITLE22=Ding Dong! The Witch Is Dead
EXTD=
EXTT0=
EXTT1=
EXTT2=
EXTT3=
EXTT4=
EXTT5=
EXTT6=
EXTT7=
EXTT8=
EXTT9=
EXTT10=
EXTT11=
EXTT12=
EXTT13=
EXTT14=
EXTT15=
EXTT16=
EXTT17=
EXTT18=
EXTT19=
EXTT20=
EXTT21=
EXTT22=
PLAYORDER=
